#GrayBuildElements.obj
#Friday, September 16, 2016
#2:57:01 PM
#-------

#GrayBuildElements
#-------
g GrayBuildElements
#Cube0
#-------
g Cube0
v 1627.124 -793.8565 2959.206
v 1027.124 -793.8565 2959.206
v 1627.124 -775.6445 2950.94
v 1027.124 -775.6445 2950.94
v 1627.124 -569.003 3406.241
v 1027.124 -569.003 3406.241
v 1627.124 -587.215 3414.507
v 1027.124 -587.215 3414.507
v 1627.124 -775.6445 2950.94
v 1027.124 -775.6445 2950.94
v 1627.124 -569.003 3406.241
v 1027.124 -569.003 3406.241
v 1627.124 -587.215 3414.507
v 1627.124 -793.8565 2959.206
v 1027.124 -793.8565 2959.206
v 1027.124 -587.215 3414.507
v 1027.124 -793.8565 2959.206
v 1027.124 -775.6445 2950.94
v 1027.124 -569.003 3406.241
v 1027.124 -587.215 3414.507
v 1627.124 -587.215 3414.507
v 1627.124 -569.003 3406.241
v 1627.124 -775.6445 2950.94
v 1627.124 -793.8565 2959.206

vn 0 0.413283 0.9106027
vn 0 0.413283 0.9106027
vn 0 0.413283 0.9106027
vn 0 0.413283 0.9106027
vn 0 -0.9106027 0.413283
vn 0 -0.9106027 0.413283
vn 0 -0.413283 -0.9106027
vn 0 -0.413283 -0.9106027
vn 0 -0.9106027 0.413283
vn 0 -0.9106027 0.413283
vn 0 -0.413283 -0.9106027
vn 0 -0.413283 -0.9106027
vn 0 0.9106027 -0.413283
vn 0 0.9106027 -0.413283
vn 0 0.9106027 -0.413283
vn 0 0.9106027 -0.413283
vn 1 0 0
vn 1 0 0
vn 1 0 0
vn 1 0 0
vn -1 0 0
vn -1 0 0
vn -1 0 0
vn -1 0 0

vt 0 0
vt 1 0
vt 0 1
vt 1 1
vt 0 1
vt 1 1
vt 0 1
vt 1 1
vt 0 0
vt 1 0
vt 0 0
vt 1 0
vt 0 0
vt 0 1
vt 1 1
vt 1 0
vt 0 0
vt 0 1
vt 1 1
vt 1 0
vt 0 0
vt 0 1
vt 1 1
vt 1 0
f 1/1/1 3/3/3 4/4/4
f 1/1/1 4/4/4 2/2/2
f 9/9/9 5/5/5 6/6/6
f 9/9/9 6/6/6 10/10/10
f 11/11/11 7/7/7 8/8/8
f 11/11/11 8/8/8 12/12/12
f 13/13/13 14/14/14 15/15/15
f 13/13/13 15/15/15 16/16/16
f 17/17/17 18/18/18 19/19/19
f 17/17/17 19/19/19 20/20/20
f 21/21/21 22/22/22 23/23/23
f 21/21/21 23/23/23 24/24/24
#Cube1
#-------
g Cube1
v 1627.124 -1034.453 2430.484
v 1027.124 -1034.453 2430.484
v 1627.124 -1016.973 2420.765
v 1027.124 -1016.973 2420.765
v 1627.124 -774.0065 2857.763
v 1027.124 -774.0065 2857.763
v 1627.124 -791.4865 2867.482
v 1027.124 -791.4865 2867.482
v 1627.124 -1016.973 2420.765
v 1027.124 -1016.973 2420.765
v 1627.124 -774.0065 2857.763
v 1027.124 -774.0065 2857.763
v 1627.124 -791.4865 2867.482
v 1627.124 -1034.453 2430.484
v 1027.124 -1034.453 2430.484
v 1027.124 -791.4865 2867.482
v 1027.124 -1034.453 2430.484
v 1027.124 -1016.973 2420.765
v 1027.124 -774.0065 2857.763
v 1027.124 -791.4865 2867.482
v 1627.124 -791.4865 2867.482
v 1627.124 -774.0065 2857.763
v 1627.124 -1016.973 2420.765
v 1627.124 -1034.453 2430.484

vn 0 0.4859328 0.8739962
vn 0 0.4859328 0.8739962
vn 0 0.4859328 0.8739962
vn 0 0.4859328 0.8739962
vn 0 -0.8739962 0.4859328
vn 0 -0.8739962 0.4859328
vn 0 -0.4859328 -0.8739962
vn 0 -0.4859328 -0.8739962
vn 0 -0.8739962 0.4859328
vn 0 -0.8739962 0.4859328
vn 0 -0.4859328 -0.8739962
vn 0 -0.4859328 -0.8739962
vn 0 0.8739962 -0.4859328
vn 0 0.8739962 -0.4859328
vn 0 0.8739962 -0.4859328
vn 0 0.8739962 -0.4859328
vn 1 0 0
vn 1 0 0
vn 1 0 0
vn 1 0 0
vn -1 0 0
vn -1 0 0
vn -1 0 0
vn -1 0 0

vt 0 0
vt 1 0
vt 0 1
vt 1 1
vt 0 1
vt 1 1
vt 0 1
vt 1 1
vt 0 0
vt 1 0
vt 0 0
vt 1 0
vt 0 0
vt 0 1
vt 1 1
vt 1 0
vt 0 0
vt 0 1
vt 1 1
vt 1 0
vt 0 0
vt 0 1
vt 1 1
vt 1 0
f 25/25/25 27/27/27 28/28/28
f 25/25/25 28/28/28 26/26/26
f 33/33/33 29/29/29 30/30/30
f 33/33/33 30/30/30 34/34/34
f 35/35/35 31/31/31 32/32/32
f 35/35/35 32/32/32 36/36/36
f 37/37/37 38/38/38 39/39/39
f 37/37/37 39/39/39 40/40/40
f 41/41/41 42/42/42 43/43/43
f 41/41/41 43/43/43 44/44/44
f 45/45/45 46/46/46 47/47/47
f 45/45/45 47/47/47 48/48/48
#Cube2
#-------
g Cube2
v 1627.124 -794.6297 2856.124
v 1027.124 -794.6297 2856.124
v 1627.124 -774.6297 2856.124
v 1027.124 -774.6297 2856.124
v 1627.124 -774.6297 2956.124
v 1027.124 -774.6297 2956.124
v 1627.124 -794.6297 2956.124
v 1027.124 -794.6297 2956.124
v 1627.124 -774.6297 2856.124
v 1027.124 -774.6297 2856.124
v 1627.124 -774.6297 2956.124
v 1027.124 -774.6297 2956.124
v 1627.124 -794.6297 2956.124
v 1627.124 -794.6297 2856.124
v 1027.124 -794.6297 2856.124
v 1027.124 -794.6297 2956.124
v 1027.124 -794.6297 2856.124
v 1027.124 -774.6297 2856.124
v 1027.124 -774.6297 2956.124
v 1027.124 -794.6297 2956.124
v 1627.124 -794.6297 2956.124
v 1627.124 -774.6297 2956.124
v 1627.124 -774.6297 2856.124
v 1627.124 -794.6297 2856.124

vn 0 0 1
vn 0 0 1
vn 0 0 1
vn 0 0 1
vn 0 -1 0
vn 0 -1 0
vn 0 0 -1
vn 0 0 -1
vn 0 -1 0
vn 0 -1 0
vn 0 0 -1
vn 0 0 -1
vn 0 1 0
vn 0 1 0
vn 0 1 0
vn 0 1 0
vn 1 0 0
vn 1 0 0
vn 1 0 0
vn 1 0 0
vn -1 0 0
vn -1 0 0
vn -1 0 0
vn -1 0 0

vt 0 0
vt 1 0
vt 0 1
vt 1 1
vt 0 1
vt 1 1
vt 0 1
vt 1 1
vt 0 0
vt 1 0
vt 0 0
vt 1 0
vt 0 0
vt 0 1
vt 1 1
vt 1 0
vt 0 0
vt 0 1
vt 1 1
vt 1 0
vt 0 0
vt 0 1
vt 1 1
vt 1 0
f 49/49/49 51/51/51 52/52/52
f 49/49/49 52/52/52 50/50/50
f 57/57/57 53/53/53 54/54/54
f 57/57/57 54/54/54 58/58/58
f 59/59/59 55/55/55 56/56/56
f 59/59/59 56/56/56 60/60/60
f 61/61/61 62/62/62 63/63/63
f 61/61/61 63/63/63 64/64/64
f 65/65/65 66/66/66 67/67/67
f 65/65/65 67/67/67 68/68/68
f 69/69/69 70/70/70 71/71/71
f 69/69/69 71/71/71 72/72/72
#Cube6
#-------
g Cube6
v -73.27893 -1071.658 10581.53
v 726.7211 -1071.658 10581.53
v -73.27893 -1021.658 10581.53
v 726.7211 -1021.658 10581.53
v -73.2724 -1021.658 -9418.472
v 726.7276 -1021.658 -9418.472
v -73.2724 -1071.658 -9418.472
v 726.7276 -1071.658 -9418.472
v -73.27893 -1021.658 10581.53
v 726.7211 -1021.658 10581.53
v -73.2724 -1021.658 -9418.472
v 726.7276 -1021.658 -9418.472
v -73.2724 -1071.658 -9418.472
v -73.27893 -1071.658 10581.53
v 726.7211 -1071.658 10581.53
v 726.7276 -1071.658 -9418.472
v 726.7211 -1071.658 10581.53
v 726.7211 -1021.658 10581.53
v 726.7276 -1021.658 -9418.472
v 726.7276 -1071.658 -9418.472
v -73.2724 -1071.658 -9418.472
v -73.2724 -1021.658 -9418.472
v -73.27893 -1021.658 10581.53
v -73.27893 -1071.658 10581.53

vn 3.258414E-07 0 -1
vn 3.258414E-07 0 -1
vn 3.258414E-07 0 -1
vn 3.258414E-07 0 -1
vn 0 -1 0
vn 0 -1 0
vn -3.258414E-07 0 1
vn -3.258414E-07 0 1
vn 0 -1 0
vn 0 -1 0
vn -3.258414E-07 0 1
vn -3.258414E-07 0 1
vn 0 1 0
vn 0 1 0
vn 0 1 0
vn 0 1 0
vn -1 0 -3.258414E-07
vn -1 0 -3.258414E-07
vn -1 0 -3.258414E-07
vn -1 0 -3.258414E-07
vn 1 0 3.258414E-07
vn 1 0 3.258414E-07
vn 1 0 3.258414E-07
vn 1 0 3.258414E-07

vt 0 0
vt 1 0
vt 0 1
vt 1 1
vt 0 1
vt 1 1
vt 0 1
vt 1 1
vt 0 0
vt 1 0
vt 0 0
vt 1 0
vt 0 0
vt 0 1
vt 1 1
vt 1 0
vt 0 0
vt 0 1
vt 1 1
vt 1 0
vt 0 0
vt 0 1
vt 1 1
vt 1 0
f 73/73/73 75/75/75 76/76/76
f 73/73/73 76/76/76 74/74/74
f 81/81/81 77/77/77 78/78/78
f 81/81/81 78/78/78 82/82/82
f 83/83/83 79/79/79 80/80/80
f 83/83/83 80/80/80 84/84/84
f 85/85/85 86/86/86 87/87/87
f 85/85/85 87/87/87 88/88/88
f 89/89/89 90/90/90 91/91/91
f 89/89/89 91/91/91 92/92/92
f 93/93/93 94/94/94 95/95/95
f 93/93/93 95/95/95 96/96/96
#Cube11
#-------
g Cube11
v 2726.724 -1071.658 -9418.472
v 1926.724 -1071.658 -9418.472
v 2726.724 -1021.658 -9418.472
v 1926.724 -1021.658 -9418.472
v 2726.724 -1021.658 10581.53
v 1926.724 -1021.658 10581.53
v 2726.724 -1071.658 10581.53
v 1926.724 -1071.658 10581.53
v 2726.724 -1021.658 -9418.472
v 1926.724 -1021.658 -9418.472
v 2726.724 -1021.658 10581.53
v 1926.724 -1021.658 10581.53
v 2726.724 -1071.658 10581.53
v 2726.724 -1071.658 -9418.472
v 1926.724 -1071.658 -9418.472
v 1926.724 -1071.658 10581.53
v 1926.724 -1071.658 -9418.472
v 1926.724 -1021.658 -9418.472
v 1926.724 -1021.658 10581.53
v 1926.724 -1071.658 10581.53
v 2726.724 -1071.658 10581.53
v 2726.724 -1021.658 10581.53
v 2726.724 -1021.658 -9418.472
v 2726.724 -1071.658 -9418.472

vn 0 0 1
vn 0 0 1
vn 0 0 1
vn 0 0 1
vn 0 -1 0
vn 0 -1 0
vn 0 0 -1
vn 0 0 -1
vn 0 -1 0
vn 0 -1 0
vn 0 0 -1
vn 0 0 -1
vn 0 1 0
vn 0 1 0
vn 0 1 0
vn 0 1 0
vn 1 0 0
vn 1 0 0
vn 1 0 0
vn 1 0 0
vn -1 0 0
vn -1 0 0
vn -1 0 0
vn -1 0 0

vt 0 0
vt 1 0
vt 0 1
vt 1 1
vt 0 1
vt 1 1
vt 0 1
vt 1 1
vt 0 0
vt 1 0
vt 0 0
vt 1 0
vt 0 0
vt 0 1
vt 1 1
vt 1 0
vt 0 0
vt 0 1
vt 1 1
vt 1 0
vt 0 0
vt 0 1
vt 1 1
vt 1 0
f 97/97/97 99/99/99 100/100/100
f 97/97/97 100/100/100 98/98/98
f 105/105/105 101/101/101 102/102/102
f 105/105/105 102/102/102 106/106/106
f 107/107/107 103/103/103 104/104/104
f 107/107/107 104/104/104 108/108/108
f 109/109/109 110/110/110 111/111/111
f 109/109/109 111/111/111 112/112/112
f 113/113/113 114/114/114 115/115/115
f 113/113/113 115/115/115 116/116/116
f 117/117/117 118/118/118 119/119/119
f 117/117/117 119/119/119 120/120/120
#Cube60
#-------
g Cube60
v 1026.229 -793.8565 -1970.954
v 1626.229 -793.8565 -1970.953
v 1026.229 -775.6445 -1962.688
v 1626.229 -775.6445 -1962.688
v 1026.229 -569.003 -2417.99
v 1626.229 -569.003 -2417.989
v 1026.229 -587.215 -2426.255
v 1626.229 -587.215 -2426.255
v 1026.229 -775.6445 -1962.688
v 1626.229 -775.6445 -1962.688
v 1026.229 -569.003 -2417.99
v 1626.229 -569.003 -2417.989
v 1026.229 -587.215 -2426.255
v 1026.229 -793.8565 -1970.954
v 1626.229 -793.8565 -1970.953
v 1626.229 -587.215 -2426.255
v 1626.229 -793.8565 -1970.953
v 1626.229 -775.6445 -1962.688
v 1626.229 -569.003 -2417.989
v 1626.229 -587.215 -2426.255
v 1026.229 -587.215 -2426.255
v 1026.229 -569.003 -2417.99
v 1026.229 -775.6445 -1962.688
v 1026.229 -793.8565 -1970.954

vn 2.96712E-07 0.413283 -0.9106029
vn 2.96712E-07 0.413283 -0.9106029
vn 2.96712E-07 0.413283 -0.9106029
vn 2.96712E-07 0.413283 -0.9106029
vn 1.346647E-07 -0.9106027 -0.413283
vn 1.346647E-07 -0.9106027 -0.413283
vn -2.96712E-07 -0.413283 0.9106029
vn -2.96712E-07 -0.413283 0.9106029
vn 1.346647E-07 -0.9106027 -0.413283
vn 1.346647E-07 -0.9106027 -0.413283
vn -2.96712E-07 -0.413283 0.9106029
vn -2.96712E-07 -0.413283 0.9106029
vn -1.346647E-07 0.9106027 0.413283
vn -1.346647E-07 0.9106027 0.413283
vn -1.346647E-07 0.9106027 0.413283
vn -1.346647E-07 0.9106027 0.413283
vn -1 0 -3.258414E-07
vn -1 0 -3.258414E-07
vn -1 0 -3.258414E-07
vn -1 0 -3.258414E-07
vn 1 0 3.258414E-07
vn 1 0 3.258414E-07
vn 1 0 3.258414E-07
vn 1 0 3.258414E-07

vt 0 0
vt 1 0
vt 0 1
vt 1 1
vt 0 1
vt 1 1
vt 0 1
vt 1 1
vt 0 0
vt 1 0
vt 0 0
vt 1 0
vt 0 0
vt 0 1
vt 1 1
vt 1 0
vt 0 0
vt 0 1
vt 1 1
vt 1 0
vt 0 0
vt 0 1
vt 1 1
vt 1 0
f 121/121/121 123/123/123 124/124/124
f 121/121/121 124/124/124 122/122/122
f 129/129/129 125/125/125 126/126/126
f 129/129/129 126/126/126 130/130/130
f 131/131/131 127/127/127 128/128/128
f 131/131/131 128/128/128 132/132/132
f 133/133/133 134/134/134 135/135/135
f 133/133/133 135/135/135 136/136/136
f 137/137/137 138/138/138 139/139/139
f 137/137/137 139/139/139 140/140/140
f 141/141/141 142/142/142 143/143/143
f 141/141/141 143/143/143 144/144/144
#Cube61
#-------
g Cube61
v 1026.229 -1034.453 -1442.232
v 1626.229 -1034.453 -1442.232
v 1026.229 -1016.973 -1432.513
v 1626.229 -1016.973 -1432.513
v 1026.229 -774.0065 -1869.511
v 1626.229 -774.0065 -1869.511
v 1026.229 -791.4865 -1879.23
v 1626.229 -791.4865 -1879.23
v 1026.229 -1016.973 -1432.513
v 1626.229 -1016.973 -1432.513
v 1026.229 -774.0065 -1869.511
v 1626.229 -774.0065 -1869.511
v 1026.229 -791.4865 -1879.23
v 1026.229 -1034.453 -1442.232
v 1626.229 -1034.453 -1442.232
v 1626.229 -791.4865 -1879.23
v 1626.229 -1034.453 -1442.232
v 1626.229 -1016.973 -1432.513
v 1626.229 -774.0065 -1869.511
v 1626.229 -791.4865 -1879.23
v 1026.229 -791.4865 -1879.23
v 1026.229 -774.0065 -1869.511
v 1026.229 -1016.973 -1432.513
v 1026.229 -1034.453 -1442.232

vn 2.847841E-07 0.4859328 -0.8739963
vn 2.847841E-07 0.4859328 -0.8739963
vn 2.847841E-07 0.4859328 -0.8739963
vn 2.847841E-07 0.4859328 -0.8739963
vn 1.58337E-07 -0.8739962 -0.4859328
vn 1.58337E-07 -0.8739962 -0.4859328
vn -2.847841E-07 -0.4859328 0.8739963
vn -2.847841E-07 -0.4859328 0.8739963
vn 1.58337E-07 -0.8739962 -0.4859328
vn 1.58337E-07 -0.8739962 -0.4859328
vn -2.847841E-07 -0.4859328 0.8739963
vn -2.847841E-07 -0.4859328 0.8739963
vn -1.58337E-07 0.8739962 0.4859328
vn -1.58337E-07 0.8739962 0.4859328
vn -1.58337E-07 0.8739962 0.4859328
vn -1.58337E-07 0.8739962 0.4859328
vn -1 0 -3.258414E-07
vn -1 0 -3.258414E-07
vn -1 0 -3.258414E-07
vn -1 0 -3.258414E-07
vn 1 0 3.258414E-07
vn 1 0 3.258414E-07
vn 1 0 3.258414E-07
vn 1 0 3.258414E-07

vt 0 0
vt 1 0
vt 0 1
vt 1 1
vt 0 1
vt 1 1
vt 0 1
vt 1 1
vt 0 0
vt 1 0
vt 0 0
vt 1 0
vt 0 0
vt 0 1
vt 1 1
vt 1 0
vt 0 0
vt 0 1
vt 1 1
vt 1 0
vt 0 0
vt 0 1
vt 1 1
vt 1 0
f 145/145/145 147/147/147 148/148/148
f 145/145/145 148/148/148 146/146/146
f 153/153/153 149/149/149 150/150/150
f 153/153/153 150/150/150 154/154/154
f 155/155/155 151/151/151 152/152/152
f 155/155/155 152/152/152 156/156/156
f 157/157/157 158/158/158 159/159/159
f 157/157/157 159/159/159 160/160/160
f 161/161/161 162/162/162 163/163/163
f 161/161/161 163/163/163 164/164/164
f 165/165/165 166/166/166 167/167/167
f 165/165/165 167/167/167 168/168/168
#Cube62
#-------
g Cube62
v 1026.229 -794.6297 -1867.872
v 1626.229 -794.6297 -1867.871
v 1026.229 -774.6297 -1867.872
v 1626.229 -774.6297 -1867.871
v 1026.229 -774.6297 -1967.872
v 1626.229 -774.6297 -1967.871
v 1026.229 -794.6297 -1967.872
v 1626.229 -794.6297 -1967.871
v 1026.229 -774.6297 -1867.872
v 1626.229 -774.6297 -1867.871
v 1026.229 -774.6297 -1967.872
v 1626.229 -774.6297 -1967.871
v 1026.229 -794.6297 -1967.872
v 1026.229 -794.6297 -1867.872
v 1626.229 -794.6297 -1867.871
v 1626.229 -794.6297 -1967.871
v 1626.229 -794.6297 -1867.871
v 1626.229 -774.6297 -1867.871
v 1626.229 -774.6297 -1967.871
v 1626.229 -794.6297 -1967.871
v 1026.229 -794.6297 -1967.872
v 1026.229 -774.6297 -1967.872
v 1026.229 -774.6297 -1867.872
v 1026.229 -794.6297 -1867.872

vn 3.258414E-07 0 -1
vn 3.258414E-07 0 -1
vn 3.258414E-07 0 -1
vn 3.258414E-07 0 -1
vn 0 -1 0
vn 0 -1 0
vn -3.258414E-07 0 1
vn -3.258414E-07 0 1
vn 0 -1 0
vn 0 -1 0
vn -3.258414E-07 0 1
vn -3.258414E-07 0 1
vn 0 1 0
vn 0 1 0
vn 0 1 0
vn 0 1 0
vn -1 0 -3.258414E-07
vn -1 0 -3.258414E-07
vn -1 0 -3.258414E-07
vn -1 0 -3.258414E-07
vn 1 0 3.258414E-07
vn 1 0 3.258414E-07
vn 1 0 3.258414E-07
vn 1 0 3.258414E-07

vt 0 0
vt 1 0
vt 0 1
vt 1 1
vt 0 1
vt 1 1
vt 0 1
vt 1 1
vt 0 0
vt 1 0
vt 0 0
vt 1 0
vt 0 0
vt 0 1
vt 1 1
vt 1 0
vt 0 0
vt 0 1
vt 1 1
vt 1 0
vt 0 0
vt 0 1
vt 1 1
vt 1 0
f 169/169/169 171/171/171 172/172/172
f 169/169/169 172/172/172 170/170/170
f 177/177/177 173/173/173 174/174/174
f 177/177/177 174/174/174 178/178/178
f 179/179/179 175/175/175 176/176/176
f 179/179/179 176/176/176 180/180/180
f 181/181/181 182/182/182 183/183/183
f 181/181/181 183/183/183 184/184/184
f 185/185/185 186/186/186 187/187/187
f 185/185/185 187/187/187 188/188/188
f 189/189/189 190/190/190 191/191/191
f 189/189/189 191/191/191 192/192/192
#Cube66
#-------
g Cube66
v 1489.629 -1089.63 -655.874
v 1189.629 -1089.63 -655.874
v 1489.629 -89.6297 -655.874
v 1189.629 -89.6297 -655.874
v 1489.629 -89.6297 -355.874
v 1189.629 -89.6297 -355.874
v 1489.629 -1089.63 -355.874
v 1189.629 -1089.63 -355.874
v 1489.629 -89.6297 -655.874
v 1189.629 -89.6297 -655.874
v 1489.629 -89.6297 -355.874
v 1189.629 -89.6297 -355.874
v 1489.629 -1089.63 -355.874
v 1489.629 -1089.63 -655.874
v 1189.629 -1089.63 -655.874
v 1189.629 -1089.63 -355.874
v 1189.629 -1089.63 -655.874
v 1189.629 -89.6297 -655.874
v 1189.629 -89.6297 -355.874
v 1189.629 -1089.63 -355.874
v 1489.629 -1089.63 -355.874
v 1489.629 -89.6297 -355.874
v 1489.629 -89.6297 -655.874
v 1489.629 -1089.63 -655.874

vn 0 0 1
vn 0 0 1
vn 0 0 1
vn 0 0 1
vn 0 -1 0
vn 0 -1 0
vn 0 0 -1
vn 0 0 -1
vn 0 -1 0
vn 0 -1 0
vn 0 0 -1
vn 0 0 -1
vn 0 1 0
vn 0 1 0
vn 0 1 0
vn 0 1 0
vn 1 0 0
vn 1 0 0
vn 1 0 0
vn 1 0 0
vn -1 0 0
vn -1 0 0
vn -1 0 0
vn -1 0 0

vt 0 0
vt 1 0
vt 0 1
vt 1 1
vt 0 1
vt 1 1
vt 0 1
vt 1 1
vt 0 0
vt 1 0
vt 0 0
vt 1 0
vt 0 0
vt 0 1
vt 1 1
vt 1 0
vt 0 0
vt 0 1
vt 1 1
vt 1 0
vt 0 0
vt 0 1
vt 1 1
vt 1 0
f 193/193/193 195/195/195 196/196/196
f 193/193/193 196/196/196 194/194/194
f 201/201/201 197/197/197 198/198/198
f 201/201/201 198/198/198 202/202/202
f 203/203/203 199/199/199 200/200/200
f 203/203/203 200/200/200 204/204/204
f 205/205/205 206/206/206 207/207/207
f 205/205/205 207/207/207 208/208/208
f 209/209/209 210/210/210 211/211/211
f 209/209/209 211/211/211 212/212/212
f 213/213/213 214/214/214 215/215/215
f 213/213/213 215/215/215 216/216/216
#Cube67
#-------
g Cube67
v 1489.629 -1089.63 1344.126
v 1189.629 -1089.63 1344.126
v 1489.629 -89.6297 1344.126
v 1189.629 -89.6297 1344.126
v 1489.629 -89.6297 1644.126
v 1189.629 -89.6297 1644.126
v 1489.629 -1089.63 1644.126
v 1189.629 -1089.63 1644.126
v 1489.629 -89.6297 1344.126
v 1189.629 -89.6297 1344.126
v 1489.629 -89.6297 1644.126
v 1189.629 -89.6297 1644.126
v 1489.629 -1089.63 1644.126
v 1489.629 -1089.63 1344.126
v 1189.629 -1089.63 1344.126
v 1189.629 -1089.63 1644.126
v 1189.629 -1089.63 1344.126
v 1189.629 -89.6297 1344.126
v 1189.629 -89.6297 1644.126
v 1189.629 -1089.63 1644.126
v 1489.629 -1089.63 1644.126
v 1489.629 -89.6297 1644.126
v 1489.629 -89.6297 1344.126
v 1489.629 -1089.63 1344.126

vn 0 0 1
vn 0 0 1
vn 0 0 1
vn 0 0 1
vn 0 -1 0
vn 0 -1 0
vn 0 0 -1
vn 0 0 -1
vn 0 -1 0
vn 0 -1 0
vn 0 0 -1
vn 0 0 -1
vn 0 1 0
vn 0 1 0
vn 0 1 0
vn 0 1 0
vn 1 0 0
vn 1 0 0
vn 1 0 0
vn 1 0 0
vn -1 0 0
vn -1 0 0
vn -1 0 0
vn -1 0 0

vt 0 0
vt 1 0
vt 0 1
vt 1 1
vt 0 1
vt 1 1
vt 0 1
vt 1 1
vt 0 0
vt 1 0
vt 0 0
vt 1 0
vt 0 0
vt 0 1
vt 1 1
vt 1 0
vt 0 0
vt 0 1
vt 1 1
vt 1 0
vt 0 0
vt 0 1
vt 1 1
vt 1 0
f 217/217/217 219/219/219 220/220/220
f 217/217/217 220/220/220 218/218/218
f 225/225/225 221/221/221 222/222/222
f 225/225/225 222/222/222 226/226/226
f 227/227/227 223/223/223 224/224/224
f 227/227/227 224/224/224 228/228/228
f 229/229/229 230/230/230 231/231/231
f 229/229/229 231/231/231 232/232/232
f 233/233/233 234/234/234 235/235/235
f 233/233/233 235/235/235 236/236/236
f 237/237/237 238/238/238 239/239/239
f 237/237/237 239/239/239 240/240/240
