#Floor.obj
#Thursday, October 06, 2016
#10:18:31 PM
#-------

#Floor
#-------
g Floor
#Cube (1)
#-------
g Cube (1)
v 26.37 -0.5 11.97
v 17.37 -0.5 11.97
v 26.37 0.5 11.97
v 17.37 0.5 11.97
v 26.37 0.5 32.97
v 17.37 0.5 32.97
v 26.37 -0.5 32.97
v 17.37 -0.5 32.97
v 26.37 0.5 11.97
v 17.37 0.5 11.97
v 26.37 0.5 32.97
v 17.37 0.5 32.97
v 26.37 -0.5 32.97
v 26.37 -0.5 11.97
v 17.37 -0.5 11.97
v 17.37 -0.5 32.97
v 17.37 -0.5 11.97
v 17.37 0.5 11.97
v 17.37 0.5 32.97
v 17.37 -0.5 32.97
v 26.37 -0.5 32.97
v 26.37 0.5 32.97
v 26.37 0.5 11.97
v 26.37 -0.5 11.97

vn 0 0 1
vn 0 0 1
vn 0 0 1
vn 0 0 1
vn 0 -1 0
vn 0 -1 0
vn 0 0 -1
vn 0 0 -1
vn 0 -1 0
vn 0 -1 0
vn 0 0 -1
vn 0 0 -1
vn 0 1 0
vn 0 1 0
vn 0 1 0
vn 0 1 0
vn 1 0 0
vn 1 0 0
vn 1 0 0
vn 1 0 0
vn -1 0 0
vn -1 0 0
vn -1 0 0
vn -1 0 0

vt 0 0
vt 1 0
vt 0 1
vt 1 1
vt 0 1
vt 1 1
vt 0 1
vt 1 1
vt 0 0
vt 1 0
vt 0 0
vt 1 0
vt 0 0
vt 0 1
vt 1 1
vt 1 0
vt 0 0
vt 0 1
vt 1 1
vt 1 0
vt 0 0
vt 0 1
vt 1 1
vt 1 0
f 1/1/1 3/3/3 4/4/4
f 1/1/1 4/4/4 2/2/2
f 9/9/9 5/5/5 6/6/6
f 9/9/9 6/6/6 10/10/10
f 11/11/11 7/7/7 8/8/8
f 11/11/11 8/8/8 12/12/12
f 13/13/13 14/14/14 15/15/15
f 13/13/13 15/15/15 16/16/16
f 17/17/17 18/18/18 19/19/19
f 17/17/17 19/19/19 20/20/20
f 21/21/21 22/22/22 23/23/23
f 21/21/21 23/23/23 24/24/24
#Cube (2)
#-------
g Cube (2)
v 26.37 -0.5 1.5
v 17.37 -0.5 1.5
v 26.37 0.5 1.5
v 17.37 0.5 1.5
v 26.37 0.5 12
v 17.37 0.5 12
v 26.37 -0.5 12
v 17.37 -0.5 12
v 26.37 0.5 1.5
v 17.37 0.5 1.5
v 26.37 0.5 12
v 17.37 0.5 12
v 26.37 -0.5 12
v 26.37 -0.5 1.5
v 17.37 -0.5 1.5
v 17.37 -0.5 12
v 17.37 -0.5 1.5
v 17.37 0.5 1.5
v 17.37 0.5 12
v 17.37 -0.5 12
v 26.37 -0.5 12
v 26.37 0.5 12
v 26.37 0.5 1.5
v 26.37 -0.5 1.5

vn 0 0 1
vn 0 0 1
vn 0 0 1
vn 0 0 1
vn 0 -1 0
vn 0 -1 0
vn 0 0 -1
vn 0 0 -1
vn 0 -1 0
vn 0 -1 0
vn 0 0 -1
vn 0 0 -1
vn 0 1 0
vn 0 1 0
vn 0 1 0
vn 0 1 0
vn 1 0 0
vn 1 0 0
vn 1 0 0
vn 1 0 0
vn -1 0 0
vn -1 0 0
vn -1 0 0
vn -1 0 0

vt 0 0
vt 1 0
vt 0 1
vt 1 1
vt 0 1
vt 1 1
vt 0 1
vt 1 1
vt 0 0
vt 1 0
vt 0 0
vt 1 0
vt 0 0
vt 0 1
vt 1 1
vt 1 0
vt 0 0
vt 0 1
vt 1 1
vt 1 0
vt 0 0
vt 0 1
vt 1 1
vt 1 0
f 25/25/25 27/27/27 28/28/28
f 25/25/25 28/28/28 26/26/26
f 33/33/33 29/29/29 30/30/30
f 33/33/33 30/30/30 34/34/34
f 35/35/35 31/31/31 32/32/32
f 35/35/35 32/32/32 36/36/36
f 37/37/37 38/38/38 39/39/39
f 37/37/37 39/39/39 40/40/40
f 41/41/41 42/42/42 43/43/43
f 41/41/41 43/43/43 44/44/44
f 45/45/45 46/46/46 47/47/47
f 45/45/45 47/47/47 48/48/48
#Cube (3)
#-------
g Cube (3)
v 26.37 -0.5 -26.88
v 17.37 -0.5 -26.88
v 26.37 0.5 -26.88
v 17.37 0.5 -26.88
v 26.37 0.5 -11.88
v 17.37 0.5 -11.88
v 26.37 -0.5 -11.88
v 17.37 -0.5 -11.88
v 26.37 0.5 -26.88
v 17.37 0.5 -26.88
v 26.37 0.5 -11.88
v 17.37 0.5 -11.88
v 26.37 -0.5 -11.88
v 26.37 -0.5 -26.88
v 17.37 -0.5 -26.88
v 17.37 -0.5 -11.88
v 17.37 -0.5 -26.88
v 17.37 0.5 -26.88
v 17.37 0.5 -11.88
v 17.37 -0.5 -11.88
v 26.37 -0.5 -11.88
v 26.37 0.5 -11.88
v 26.37 0.5 -26.88
v 26.37 -0.5 -26.88

vn 0 0 1
vn 0 0 1
vn 0 0 1
vn 0 0 1
vn 0 -1 0
vn 0 -1 0
vn 0 0 -1
vn 0 0 -1
vn 0 -1 0
vn 0 -1 0
vn 0 0 -1
vn 0 0 -1
vn 0 1 0
vn 0 1 0
vn 0 1 0
vn 0 1 0
vn 1 0 0
vn 1 0 0
vn 1 0 0
vn 1 0 0
vn -1 0 0
vn -1 0 0
vn -1 0 0
vn -1 0 0

vt 0 0
vt 1 0
vt 0 1
vt 1 1
vt 0 1
vt 1 1
vt 0 1
vt 1 1
vt 0 0
vt 1 0
vt 0 0
vt 1 0
vt 0 0
vt 0 1
vt 1 1
vt 1 0
vt 0 0
vt 0 1
vt 1 1
vt 1 0
vt 0 0
vt 0 1
vt 1 1
vt 1 0
f 49/49/49 51/51/51 52/52/52
f 49/49/49 52/52/52 50/50/50
f 57/57/57 53/53/53 54/54/54
f 57/57/57 54/54/54 58/58/58
f 59/59/59 55/55/55 56/56/56
f 59/59/59 56/56/56 60/60/60
f 61/61/61 62/62/62 63/63/63
f 61/61/61 63/63/63 64/64/64
f 65/65/65 66/66/66 67/67/67
f 65/65/65 67/67/67 68/68/68
f 69/69/69 70/70/70 71/71/71
f 69/69/69 71/71/71 72/72/72
#Cube (4)
#-------
g Cube (4)
v 26.19808 -0.5 5.097695
v 21.00192 -0.5 8.097695
v 26.19808 0.5 5.097695
v 21.00192 0.5 8.097695
v 38.19808 0.5 25.88231
v 33.00193 0.5 28.88231
v 38.19808 -0.5 25.88231
v 33.00193 -0.5 28.88231
v 26.19808 0.5 5.097695
v 21.00192 0.5 8.097695
v 38.19808 0.5 25.88231
v 33.00193 0.5 28.88231
v 38.19808 -0.5 25.88231
v 26.19808 -0.5 5.097695
v 21.00192 -0.5 8.097695
v 33.00193 -0.5 28.88231
v 21.00192 -0.5 8.097695
v 21.00192 0.5 8.097695
v 33.00193 0.5 28.88231
v 33.00193 -0.5 28.88231
v 38.19808 -0.5 25.88231
v 38.19808 0.5 25.88231
v 26.19808 0.5 5.097695
v 26.19808 -0.5 5.097695

vn 0.5000001 0 0.8660254
vn 0.5000001 0 0.8660254
vn 0.5000001 0 0.8660254
vn 0.5000001 0 0.8660254
vn 0 -1 0
vn 0 -1 0
vn -0.5000001 0 -0.8660254
vn -0.5000001 0 -0.8660254
vn 0 -1 0
vn 0 -1 0
vn -0.5000001 0 -0.8660254
vn -0.5000001 0 -0.8660254
vn 0 1 0
vn 0 1 0
vn 0 1 0
vn 0 1 0
vn 0.8660254 0 -0.5000001
vn 0.8660254 0 -0.5000001
vn 0.8660254 0 -0.5000001
vn 0.8660254 0 -0.5000001
vn -0.8660254 0 0.5000001
vn -0.8660254 0 0.5000001
vn -0.8660254 0 0.5000001
vn -0.8660254 0 0.5000001

vt 0 0
vt 1 0
vt 0 1
vt 1 1
vt 0 1
vt 1 1
vt 0 1
vt 1 1
vt 0 0
vt 1 0
vt 0 0
vt 1 0
vt 0 0
vt 0 1
vt 1 1
vt 1 0
vt 0 0
vt 0 1
vt 1 1
vt 1 0
vt 0 0
vt 0 1
vt 1 1
vt 1 0
f 73/73/73 75/75/75 76/76/76
f 73/73/73 76/76/76 74/74/74
f 81/81/81 77/77/77 78/78/78
f 81/81/81 78/78/78 82/82/82
f 83/83/83 79/79/79 80/80/80
f 83/83/83 80/80/80 84/84/84
f 85/85/85 86/86/86 87/87/87
f 85/85/85 87/87/87 88/88/88
f 89/89/89 90/90/90 91/91/91
f 89/89/89 91/91/91 92/92/92
f 93/93/93 94/94/94 95/95/95
f 93/93/93 95/95/95 96/96/96
#Cube (5)
#-------
g Cube (5)
v 41.31 -0.5 -4.79
v 26.31 -0.5 -4.79
v 41.31 0.5 -4.79
v 26.31 0.5 -4.79
v 41.31 0.5 5.21
v 26.31 0.5 5.21
v 41.31 -0.5 5.21
v 26.31 -0.5 5.21
v 41.31 0.5 -4.79
v 26.31 0.5 -4.79
v 41.31 0.5 5.21
v 26.31 0.5 5.21
v 41.31 -0.5 5.21
v 41.31 -0.5 -4.79
v 26.31 -0.5 -4.79
v 26.31 -0.5 5.21
v 26.31 -0.5 -4.79
v 26.31 0.5 -4.79
v 26.31 0.5 5.21
v 26.31 -0.5 5.21
v 41.31 -0.5 5.21
v 41.31 0.5 5.21
v 41.31 0.5 -4.79
v 41.31 -0.5 -4.79

vn 0 0 1
vn 0 0 1
vn 0 0 1
vn 0 0 1
vn 0 -1 0
vn 0 -1 0
vn 0 0 -1
vn 0 0 -1
vn 0 -1 0
vn 0 -1 0
vn 0 0 -1
vn 0 0 -1
vn 0 1 0
vn 0 1 0
vn 0 1 0
vn 0 1 0
vn 1 0 0
vn 1 0 0
vn 1 0 0
vn 1 0 0
vn -1 0 0
vn -1 0 0
vn -1 0 0
vn -1 0 0

vt 0 0
vt 1 0
vt 0 1
vt 1 1
vt 0 1
vt 1 1
vt 0 1
vt 1 1
vt 0 0
vt 1 0
vt 0 0
vt 1 0
vt 0 0
vt 0 1
vt 1 1
vt 1 0
vt 0 0
vt 0 1
vt 1 1
vt 1 0
vt 0 0
vt 0 1
vt 1 1
vt 1 0
f 97/97/97 99/99/99 100/100/100
f 97/97/97 100/100/100 98/98/98
f 105/105/105 101/101/101 102/102/102
f 105/105/105 102/102/102 106/106/106
f 107/107/107 103/103/103 104/104/104
f 107/107/107 104/104/104 108/108/108
f 109/109/109 110/110/110 111/111/111
f 109/109/109 111/111/111 112/112/112
f 113/113/113 114/114/114 115/115/115
f 113/113/113 115/115/115 116/116/116
f 117/117/117 118/118/118 119/119/119
f 117/117/117 119/119/119 120/120/120
#Cube (6)
#-------
g Cube (6)
v -17.4 -0.5 11.96
v -26.4 -0.5 11.96
v -17.4 0.5 11.96
v -26.4 0.5 11.96
v -17.4 0.5 33.96
v -26.4 0.5 33.96
v -17.4 -0.5 33.96
v -26.4 -0.5 33.96
v -17.4 0.5 11.96
v -26.4 0.5 11.96
v -17.4 0.5 33.96
v -26.4 0.5 33.96
v -17.4 -0.5 33.96
v -17.4 -0.5 11.96
v -26.4 -0.5 11.96
v -26.4 -0.5 33.96
v -26.4 -0.5 11.96
v -26.4 0.5 11.96
v -26.4 0.5 33.96
v -26.4 -0.5 33.96
v -17.4 -0.5 33.96
v -17.4 0.5 33.96
v -17.4 0.5 11.96
v -17.4 -0.5 11.96

vn 0 0 1
vn 0 0 1
vn 0 0 1
vn 0 0 1
vn 0 -1 0
vn 0 -1 0
vn 0 0 -1
vn 0 0 -1
vn 0 -1 0
vn 0 -1 0
vn 0 0 -1
vn 0 0 -1
vn 0 1 0
vn 0 1 0
vn 0 1 0
vn 0 1 0
vn 1 0 0
vn 1 0 0
vn 1 0 0
vn 1 0 0
vn -1 0 0
vn -1 0 0
vn -1 0 0
vn -1 0 0

vt 0 0
vt 1 0
vt 0 1
vt 1 1
vt 0 1
vt 1 1
vt 0 1
vt 1 1
vt 0 0
vt 1 0
vt 0 0
vt 1 0
vt 0 0
vt 0 1
vt 1 1
vt 1 0
vt 0 0
vt 0 1
vt 1 1
vt 1 0
vt 0 0
vt 0 1
vt 1 1
vt 1 0
f 121/121/121 123/123/123 124/124/124
f 121/121/121 124/124/124 122/122/122
f 129/129/129 125/125/125 126/126/126
f 129/129/129 126/126/126 130/130/130
f 131/131/131 127/127/127 128/128/128
f 131/131/131 128/128/128 132/132/132
f 133/133/133 134/134/134 135/135/135
f 133/133/133 135/135/135 136/136/136
f 137/137/137 138/138/138 139/139/139
f 137/137/137 139/139/139 140/140/140
f 141/141/141 142/142/142 143/143/143
f 141/141/141 143/143/143 144/144/144
#Cube (7)
#-------
g Cube (7)
v -16.13 -0.5 4.46
v -31.13 -0.5 4.46
v -16.13 0.5 4.46
v -31.13 0.5 4.46
v -16.13 0.5 11.96
v -31.13 0.5 11.96
v -16.13 -0.5 11.96
v -31.13 -0.5 11.96
v -16.13 0.5 4.46
v -31.13 0.5 4.46
v -16.13 0.5 11.96
v -31.13 0.5 11.96
v -16.13 -0.5 11.96
v -16.13 -0.5 4.46
v -31.13 -0.5 4.46
v -31.13 -0.5 11.96
v -31.13 -0.5 4.46
v -31.13 0.5 4.46
v -31.13 0.5 11.96
v -31.13 -0.5 11.96
v -16.13 -0.5 11.96
v -16.13 0.5 11.96
v -16.13 0.5 4.46
v -16.13 -0.5 4.46

vn 0 0 1
vn 0 0 1
vn 0 0 1
vn 0 0 1
vn 0 -1 0
vn 0 -1 0
vn 0 0 -1
vn 0 0 -1
vn 0 -1 0
vn 0 -1 0
vn 0 0 -1
vn 0 0 -1
vn 0 1 0
vn 0 1 0
vn 0 1 0
vn 0 1 0
vn 1 0 0
vn 1 0 0
vn 1 0 0
vn 1 0 0
vn -1 0 0
vn -1 0 0
vn -1 0 0
vn -1 0 0

vt 0 0
vt 1 0
vt 0 1
vt 1 1
vt 0 1
vt 1 1
vt 0 1
vt 1 1
vt 0 0
vt 1 0
vt 0 0
vt 1 0
vt 0 0
vt 0 1
vt 1 1
vt 1 0
vt 0 0
vt 0 1
vt 1 1
vt 1 0
vt 0 0
vt 0 1
vt 1 1
vt 1 0
f 145/145/145 147/147/147 148/148/148
f 145/145/145 148/148/148 146/146/146
f 153/153/153 149/149/149 150/150/150
f 153/153/153 150/150/150 154/154/154
f 155/155/155 151/151/151 152/152/152
f 155/155/155 152/152/152 156/156/156
f 157/157/157 158/158/158 159/159/159
f 157/157/157 159/159/159 160/160/160
f 161/161/161 162/162/162 163/163/163
f 161/161/161 163/163/163 164/164/164
f 165/165/165 166/166/166 167/167/167
f 165/165/165 167/167/167 168/168/168
#Cube (8)
#-------
g Cube (8)
v -16.91488 -0.5 -22.51173
v -22.57173 -0.5 -16.85487
v -16.91488 0.5 -22.51173
v -22.57173 0.5 -16.85487
v -6.308271 0.5 -11.90513
v -11.96513 0.5 -6.248273
v -6.308271 -0.5 -11.90513
v -11.96513 -0.5 -6.248273
v -16.91488 0.5 -22.51173
v -22.57173 0.5 -16.85487
v -6.308271 0.5 -11.90513
v -11.96513 0.5 -6.248273
v -6.308271 -0.5 -11.90513
v -16.91488 -0.5 -22.51173
v -22.57173 -0.5 -16.85487
v -11.96513 -0.5 -6.248273
v -22.57173 -0.5 -16.85487
v -22.57173 0.5 -16.85487
v -11.96513 0.5 -6.248273
v -11.96513 -0.5 -6.248273
v -6.308271 -0.5 -11.90513
v -6.308271 0.5 -11.90513
v -16.91488 0.5 -22.51173
v -16.91488 -0.5 -22.51173

vn 0.7071068 0 0.7071067
vn 0.7071068 0 0.7071067
vn 0.7071068 0 0.7071067
vn 0.7071068 0 0.7071067
vn 0 -1 0
vn 0 -1 0
vn -0.7071068 0 -0.7071067
vn -0.7071068 0 -0.7071067
vn 0 -1 0
vn 0 -1 0
vn -0.7071068 0 -0.7071067
vn -0.7071068 0 -0.7071067
vn 0 1 0
vn 0 1 0
vn 0 1 0
vn 0 1 0
vn 0.7071067 0 -0.7071068
vn 0.7071067 0 -0.7071068
vn 0.7071067 0 -0.7071068
vn 0.7071067 0 -0.7071068
vn -0.7071067 0 0.7071068
vn -0.7071067 0 0.7071068
vn -0.7071067 0 0.7071068
vn -0.7071067 0 0.7071068

vt 0 0
vt 1 0
vt 0 1
vt 1 1
vt 0 1
vt 1 1
vt 0 1
vt 1 1
vt 0 0
vt 1 0
vt 0 0
vt 1 0
vt 0 0
vt 0 1
vt 1 1
vt 1 0
vt 0 0
vt 0 1
vt 1 1
vt 1 0
vt 0 0
vt 0 1
vt 1 1
vt 1 0
f 169/169/169 171/171/171 172/172/172
f 169/169/169 172/172/172 170/170/170
f 177/177/177 173/173/173 174/174/174
f 177/177/177 174/174/174 178/178/178
f 179/179/179 175/175/175 176/176/176
f 179/179/179 176/176/176 180/180/180
f 181/181/181 182/182/182 183/183/183
f 181/181/181 183/183/183 184/184/184
f 185/185/185 186/186/186 187/187/187
f 185/185/185 187/187/187 188/188/188
f 189/189/189 190/190/190 191/191/191
f 189/189/189 191/191/191 192/192/192
#Cube (10)
#-------
g Cube (10)
v -26.54577 -0.5 12.28013
v -31.54577 -0.5 3.619873
v -26.54577 0.5 12.28013
v -31.54577 0.5 3.619873
v -42.13423 0.5 21.28013
v -47.13423 0.5 12.61987
v -42.13423 -0.5 21.28013
v -47.13423 -0.5 12.61987
v -26.54577 0.5 12.28013
v -31.54577 0.5 3.619873
v -42.13423 0.5 21.28013
v -47.13423 0.5 12.61987
v -42.13423 -0.5 21.28013
v -26.54577 -0.5 12.28013
v -31.54577 -0.5 3.619873
v -47.13423 -0.5 12.61987
v -31.54577 -0.5 3.619873
v -31.54577 0.5 3.619873
v -47.13423 0.5 12.61987
v -47.13423 -0.5 12.61987
v -42.13423 -0.5 21.28013
v -42.13423 0.5 21.28013
v -26.54577 0.5 12.28013
v -26.54577 -0.5 12.28013

vn -0.8660255 0 0.4999999
vn -0.8660255 0 0.4999999
vn -0.8660255 0 0.4999999
vn -0.8660255 0 0.4999999
vn 0 -1 0
vn 0 -1 0
vn 0.8660255 0 -0.4999999
vn 0.8660255 0 -0.4999999
vn 0 -1 0
vn 0 -1 0
vn 0.8660255 0 -0.4999999
vn 0.8660255 0 -0.4999999
vn 0 1 0
vn 0 1 0
vn 0 1 0
vn 0 1 0
vn 0.4999999 0 0.8660255
vn 0.4999999 0 0.8660255
vn 0.4999999 0 0.8660255
vn 0.4999999 0 0.8660255
vn -0.4999999 0 -0.8660255
vn -0.4999999 0 -0.8660255
vn -0.4999999 0 -0.8660255
vn -0.4999999 0 -0.8660255

vt 0 0
vt 1 0
vt 0 1
vt 1 1
vt 0 1
vt 1 1
vt 0 1
vt 1 1
vt 0 0
vt 1 0
vt 0 0
vt 1 0
vt 0 0
vt 0 1
vt 1 1
vt 1 0
vt 0 0
vt 0 1
vt 1 1
vt 1 0
vt 0 0
vt 0 1
vt 1 1
vt 1 0
f 193/193/193 195/195/195 196/196/196
f 193/193/193 196/196/196 194/194/194
f 201/201/201 197/197/197 198/198/198
f 201/201/201 198/198/198 202/202/202
f 203/203/203 199/199/199 200/200/200
f 203/203/203 200/200/200 204/204/204
f 205/205/205 206/206/206 207/207/207
f 205/205/205 207/207/207 208/208/208
f 209/209/209 210/210/210 211/211/211
f 209/209/209 211/211/211 212/212/212
f 213/213/213 214/214/214 215/215/215
f 213/213/213 215/215/215 216/216/216
#Cube (11)
#-------
g Cube (11)
v -17.39 -0.5 -5.13
v -51.39 -0.5 -5.13
v -17.39 0.5 -5.13
v -51.39 0.5 -5.13
v -17.39 0.5 4.87
v -51.39 0.5 4.87
v -17.39 -0.5 4.87
v -51.39 -0.5 4.87
v -17.39 0.5 -5.13
v -51.39 0.5 -5.13
v -17.39 0.5 4.87
v -51.39 0.5 4.87
v -17.39 -0.5 4.87
v -17.39 -0.5 -5.13
v -51.39 -0.5 -5.13
v -51.39 -0.5 4.87
v -51.39 -0.5 -5.13
v -51.39 0.5 -5.13
v -51.39 0.5 4.87
v -51.39 -0.5 4.87
v -17.39 -0.5 4.87
v -17.39 0.5 4.87
v -17.39 0.5 -5.13
v -17.39 -0.5 -5.13

vn 0 0 1
vn 0 0 1
vn 0 0 1
vn 0 0 1
vn 0 -1 0
vn 0 -1 0
vn 0 0 -1
vn 0 0 -1
vn 0 -1 0
vn 0 -1 0
vn 0 0 -1
vn 0 0 -1
vn 0 1 0
vn 0 1 0
vn 0 1 0
vn 0 1 0
vn 1 0 0
vn 1 0 0
vn 1 0 0
vn 1 0 0
vn -1 0 0
vn -1 0 0
vn -1 0 0
vn -1 0 0

vt 0 0
vt 1 0
vt 0 1
vt 1 1
vt 0 1
vt 1 1
vt 0 1
vt 1 1
vt 0 0
vt 1 0
vt 0 0
vt 1 0
vt 0 0
vt 0 1
vt 1 1
vt 1 0
vt 0 0
vt 0 1
vt 1 1
vt 1 0
vt 0 0
vt 0 1
vt 1 1
vt 1 0
f 217/217/217 219/219/219 220/220/220
f 217/217/217 220/220/220 218/218/218
f 225/225/225 221/221/221 222/222/222
f 225/225/225 222/222/222 226/226/226
f 227/227/227 223/223/223 224/224/224
f 227/227/227 224/224/224 228/228/228
f 229/229/229 230/230/230 231/231/231
f 229/229/229 231/231/231 232/232/232
f 233/233/233 234/234/234 235/235/235
f 233/233/233 235/235/235 236/236/236
f 237/237/237 238/238/238 239/239/239
f 237/237/237 239/239/239 240/240/240
#Cube (12)
#-------
g Cube (12)
v 38.19 -0.5 25.88
v 32.99 -0.5 25.88
v 38.19 0.5 25.88
v 32.99 0.5 25.88
v 38.19 0.5 31.88
v 32.99 0.5 31.88
v 38.19 -0.5 31.88
v 32.99 -0.5 31.88
v 38.19 0.5 25.88
v 32.99 0.5 25.88
v 38.19 0.5 31.88
v 32.99 0.5 31.88
v 38.19 -0.5 31.88
v 38.19 -0.5 25.88
v 32.99 -0.5 25.88
v 32.99 -0.5 31.88
v 32.99 -0.5 25.88
v 32.99 0.5 25.88
v 32.99 0.5 31.88
v 32.99 -0.5 31.88
v 38.19 -0.5 31.88
v 38.19 0.5 31.88
v 38.19 0.5 25.88
v 38.19 -0.5 25.88

vn 0 0 1
vn 0 0 1
vn 0 0 1
vn 0 0 1
vn 0 -1 0
vn 0 -1 0
vn 0 0 -1
vn 0 0 -1
vn 0 -1 0
vn 0 -1 0
vn 0 0 -1
vn 0 0 -1
vn 0 1 0
vn 0 1 0
vn 0 1 0
vn 0 1 0
vn 1 0 0
vn 1 0 0
vn 1 0 0
vn 1 0 0
vn -1 0 0
vn -1 0 0
vn -1 0 0
vn -1 0 0

vt 0 0
vt 1 0
vt 0 1
vt 1 1
vt 0 1
vt 1 1
vt 0 1
vt 1 1
vt 0 0
vt 1 0
vt 0 0
vt 1 0
vt 0 0
vt 0 1
vt 1 1
vt 1 0
vt 0 0
vt 0 1
vt 1 1
vt 1 0
vt 0 0
vt 0 1
vt 1 1
vt 1 0
f 241/241/241 243/243/243 244/244/244
f 241/241/241 244/244/244 242/242/242
f 249/249/249 245/245/245 246/246/246
f 249/249/249 246/246/246 250/250/250
f 251/251/251 247/247/247 248/248/248
f 251/251/251 248/248/248 252/252/252
f 253/253/253 254/254/254 255/255/255
f 253/253/253 255/255/255 256/256/256
f 257/257/257 258/258/258 259/259/259
f 257/257/257 259/259/259 260/260/260
f 261/261/261 262/262/262 263/263/263
f 261/261/261 263/263/263 264/264/264
#Cube (13)
#-------
g Cube (13)
v -42.17 -0.5 12.64
v -47.17 -0.5 12.64
v -42.17 0.5 12.64
v -47.17 0.5 12.64
v -42.17 0.5 30.64
v -47.17 0.5 30.64
v -42.17 -0.5 30.64
v -47.17 -0.5 30.64
v -42.17 0.5 12.64
v -47.17 0.5 12.64
v -42.17 0.5 30.64
v -47.17 0.5 30.64
v -42.17 -0.5 30.64
v -42.17 -0.5 12.64
v -47.17 -0.5 12.64
v -47.17 -0.5 30.64
v -47.17 -0.5 12.64
v -47.17 0.5 12.64
v -47.17 0.5 30.64
v -47.17 -0.5 30.64
v -42.17 -0.5 30.64
v -42.17 0.5 30.64
v -42.17 0.5 12.64
v -42.17 -0.5 12.64

vn 0 0 1
vn 0 0 1
vn 0 0 1
vn 0 0 1
vn 0 -1 0
vn 0 -1 0
vn 0 0 -1
vn 0 0 -1
vn 0 -1 0
vn 0 -1 0
vn 0 0 -1
vn 0 0 -1
vn 0 1 0
vn 0 1 0
vn 0 1 0
vn 0 1 0
vn 1 0 0
vn 1 0 0
vn 1 0 0
vn 1 0 0
vn -1 0 0
vn -1 0 0
vn -1 0 0
vn -1 0 0

vt 0 0
vt 1 0
vt 0 1
vt 1 1
vt 0 1
vt 1 1
vt 0 1
vt 1 1
vt 0 0
vt 1 0
vt 0 0
vt 1 0
vt 0 0
vt 0 1
vt 1 1
vt 1 0
vt 0 0
vt 0 1
vt 1 1
vt 1 0
vt 0 0
vt 0 1
vt 1 1
vt 1 0
f 265/265/265 267/267/267 268/268/268
f 265/265/265 268/268/268 266/266/266
f 273/273/273 269/269/269 270/270/270
f 273/273/273 270/270/270 274/274/274
f 275/275/275 271/271/271 272/272/272
f 275/275/275 272/272/272 276/276/276
f 277/277/277 278/278/278 279/279/279
f 277/277/277 279/279/279 280/280/280
f 281/281/281 282/282/282 283/283/283
f 281/281/281 283/283/283 284/284/284
f 285/285/285 286/286/286 287/287/287
f 285/285/285 287/287/287 288/288/288
#Cube (14)
#-------
g Cube (14)
v 17.4 -0.5 1.43
v -17.4 -0.5 1.43
v 17.4 0.5 1.43
v -17.4 0.5 1.43
v 17.4 0.5 11.93
v -17.4 0.5 11.93
v 17.4 -0.5 11.93
v -17.4 -0.5 11.93
v 17.4 0.5 1.43
v -17.4 0.5 1.43
v 17.4 0.5 11.93
v -17.4 0.5 11.93
v 17.4 -0.5 11.93
v 17.4 -0.5 1.43
v -17.4 -0.5 1.43
v -17.4 -0.5 11.93
v -17.4 -0.5 1.43
v -17.4 0.5 1.43
v -17.4 0.5 11.93
v -17.4 -0.5 11.93
v 17.4 -0.5 11.93
v 17.4 0.5 11.93
v 17.4 0.5 1.43
v 17.4 -0.5 1.43

vn 0 0 1
vn 0 0 1
vn 0 0 1
vn 0 0 1
vn 0 -1 0
vn 0 -1 0
vn 0 0 -1
vn 0 0 -1
vn 0 -1 0
vn 0 -1 0
vn 0 0 -1
vn 0 0 -1
vn 0 1 0
vn 0 1 0
vn 0 1 0
vn 0 1 0
vn 1 0 0
vn 1 0 0
vn 1 0 0
vn 1 0 0
vn -1 0 0
vn -1 0 0
vn -1 0 0
vn -1 0 0

vt 0 0
vt 1 0
vt 0 1
vt 1 1
vt 0 1
vt 1 1
vt 0 1
vt 1 1
vt 0 0
vt 1 0
vt 0 0
vt 1 0
vt 0 0
vt 0 1
vt 1 1
vt 1 0
vt 0 0
vt 0 1
vt 1 1
vt 1 0
vt 0 0
vt 0 1
vt 1 1
vt 1 0
f 289/289/289 291/291/291 292/292/292
f 289/289/289 292/292/292 290/290/290
f 297/297/297 293/293/293 294/294/294
f 297/297/297 294/294/294 298/298/298
f 299/299/299 295/295/295 296/296/296
f 299/299/299 296/296/296 300/300/300
f 301/301/301 302/302/302 303/303/303
f 301/301/301 303/303/303 304/304/304
f 305/305/305 306/306/306 307/307/307
f 305/305/305 307/307/307 308/308/308
f 309/309/309 310/310/310 311/311/311
f 309/309/309 311/311/311 312/312/312
#Cube (15)
#-------
g Cube (15)
v 17.4 -0.5 -11.99
v -17.4 -0.5 -11.99
v 17.4 0.5 -11.99
v -17.4 0.5 -11.99
v 17.4 0.5 -1.49
v -17.4 0.5 -1.49
v 17.4 -0.5 -1.49
v -17.4 -0.5 -1.49
v 17.4 0.5 -11.99
v -17.4 0.5 -11.99
v 17.4 0.5 -1.49
v -17.4 0.5 -1.49
v 17.4 -0.5 -1.49
v 17.4 -0.5 -11.99
v -17.4 -0.5 -11.99
v -17.4 -0.5 -1.49
v -17.4 -0.5 -11.99
v -17.4 0.5 -11.99
v -17.4 0.5 -1.49
v -17.4 -0.5 -1.49
v 17.4 -0.5 -1.49
v 17.4 0.5 -1.49
v 17.4 0.5 -11.99
v 17.4 -0.5 -11.99

vn 0 0 1
vn 0 0 1
vn 0 0 1
vn 0 0 1
vn 0 -1 0
vn 0 -1 0
vn 0 0 -1
vn 0 0 -1
vn 0 -1 0
vn 0 -1 0
vn 0 0 -1
vn 0 0 -1
vn 0 1 0
vn 0 1 0
vn 0 1 0
vn 0 1 0
vn 1 0 0
vn 1 0 0
vn 1 0 0
vn 1 0 0
vn -1 0 0
vn -1 0 0
vn -1 0 0
vn -1 0 0

vt 0 0
vt 1 0
vt 0 1
vt 1 1
vt 0 1
vt 1 1
vt 0 1
vt 1 1
vt 0 0
vt 1 0
vt 0 0
vt 1 0
vt 0 0
vt 0 1
vt 1 1
vt 1 0
vt 0 0
vt 0 1
vt 1 1
vt 1 0
vt 0 0
vt 0 1
vt 1 1
vt 1 0
f 313/313/313 315/315/315 316/316/316
f 313/313/313 316/316/316 314/314/314
f 321/321/321 317/317/317 318/318/318
f 321/321/321 318/318/318 322/322/322
f 323/323/323 319/319/319 320/320/320
f 323/323/323 320/320/320 324/324/324
f 325/325/325 326/326/326 327/327/327
f 325/325/325 327/327/327 328/328/328
f 329/329/329 330/330/330 331/331/331
f 329/329/329 331/331/331 332/332/332
f 333/333/333 334/334/334 335/335/335
f 333/333/333 335/335/335 336/336/336
#Cube (16)
#-------
g Cube (16)
v 17.4 -0.5 -1.51
v -11.4 -0.5 -1.51
v 17.4 0.5 -1.51
v -11.4 0.5 -1.51
v 17.4 0.5 1.49
v -11.4 0.5 1.49
v 17.4 -0.5 1.49
v -11.4 -0.5 1.49
v 17.4 0.5 -1.51
v -11.4 0.5 -1.51
v 17.4 0.5 1.49
v -11.4 0.5 1.49
v 17.4 -0.5 1.49
v 17.4 -0.5 -1.51
v -11.4 -0.5 -1.51
v -11.4 -0.5 1.49
v -11.4 -0.5 -1.51
v -11.4 0.5 -1.51
v -11.4 0.5 1.49
v -11.4 -0.5 1.49
v 17.4 -0.5 1.49
v 17.4 0.5 1.49
v 17.4 0.5 -1.51
v 17.4 -0.5 -1.51

vn 0 0 1
vn 0 0 1
vn 0 0 1
vn 0 0 1
vn 0 -1 0
vn 0 -1 0
vn 0 0 -1
vn 0 0 -1
vn 0 -1 0
vn 0 -1 0
vn 0 0 -1
vn 0 0 -1
vn 0 1 0
vn 0 1 0
vn 0 1 0
vn 0 1 0
vn 1 0 0
vn 1 0 0
vn 1 0 0
vn 1 0 0
vn -1 0 0
vn -1 0 0
vn -1 0 0
vn -1 0 0

vt 0 0
vt 1 0
vt 0 1
vt 1 1
vt 0 1
vt 1 1
vt 0 1
vt 1 1
vt 0 0
vt 1 0
vt 0 0
vt 1 0
vt 0 0
vt 0 1
vt 1 1
vt 1 0
vt 0 0
vt 0 1
vt 1 1
vt 1 0
vt 0 0
vt 0 1
vt 1 1
vt 1 0
f 337/337/337 339/339/339 340/340/340
f 337/337/337 340/340/340 338/338/338
f 345/345/345 341/341/341 342/342/342
f 345/345/345 342/342/342 346/346/346
f 347/347/347 343/343/343 344/344/344
f 347/347/347 344/344/344 348/348/348
f 349/349/349 350/350/350 351/351/351
f 349/349/349 351/351/351 352/352/352
f 353/353/353 354/354/354 355/355/355
f 353/353/353 355/355/355 356/356/356
f 357/357/357 358/358/358 359/359/359
f 357/357/357 359/359/359 360/360/360
#Cube (17)
#-------
g Cube (17)
v 26.37 -0.5 -11.89
v 17.37 -0.5 -11.89
v 26.37 0.5 -11.89
v 17.37 0.5 -11.89
v 26.37 0.5 -1.39
v 17.37 0.5 -1.39
v 26.37 -0.5 -1.39
v 17.37 -0.5 -1.39
v 26.37 0.5 -11.89
v 17.37 0.5 -11.89
v 26.37 0.5 -1.39
v 17.37 0.5 -1.39
v 26.37 -0.5 -1.39
v 26.37 -0.5 -11.89
v 17.37 -0.5 -11.89
v 17.37 -0.5 -1.39
v 17.37 -0.5 -11.89
v 17.37 0.5 -11.89
v 17.37 0.5 -1.39
v 17.37 -0.5 -1.39
v 26.37 -0.5 -1.39
v 26.37 0.5 -1.39
v 26.37 0.5 -11.89
v 26.37 -0.5 -11.89

vn 0 0 1
vn 0 0 1
vn 0 0 1
vn 0 0 1
vn 0 -1 0
vn 0 -1 0
vn 0 0 -1
vn 0 0 -1
vn 0 -1 0
vn 0 -1 0
vn 0 0 -1
vn 0 0 -1
vn 0 1 0
vn 0 1 0
vn 0 1 0
vn 0 1 0
vn 1 0 0
vn 1 0 0
vn 1 0 0
vn 1 0 0
vn -1 0 0
vn -1 0 0
vn -1 0 0
vn -1 0 0

vt 0 0
vt 1 0
vt 0 1
vt 1 1
vt 0 1
vt 1 1
vt 0 1
vt 1 1
vt 0 0
vt 1 0
vt 0 0
vt 1 0
vt 0 0
vt 0 1
vt 1 1
vt 1 0
vt 0 0
vt 0 1
vt 1 1
vt 1 0
vt 0 0
vt 0 1
vt 1 1
vt 1 0
f 361/361/361 363/363/363 364/364/364
f 361/361/361 364/364/364 362/362/362
f 369/369/369 365/365/365 366/366/366
f 369/369/369 366/366/366 370/370/370
f 371/371/371 367/367/367 368/368/368
f 371/371/371 368/368/368 372/372/372
f 373/373/373 374/374/374 375/375/375
f 373/373/373 375/375/375 376/376/376
f 377/377/377 378/378/378 379/379/379
f 377/377/377 379/379/379 380/380/380
f 381/381/381 382/382/382 383/383/383
f 381/381/381 383/383/383 384/384/384
#Cube (18)
#-------
g Cube (18)
v 26.31 -0.5 -1.43
v 24.31 -0.5 -1.43
v 26.31 0.5 -1.43
v 24.31 0.5 -1.43
v 26.31 0.5 1.57
v 24.31 0.5 1.57
v 26.31 -0.5 1.57
v 24.31 -0.5 1.57
v 26.31 0.5 -1.43
v 24.31 0.5 -1.43
v 26.31 0.5 1.57
v 24.31 0.5 1.57
v 26.31 -0.5 1.57
v 26.31 -0.5 -1.43
v 24.31 -0.5 -1.43
v 24.31 -0.5 1.57
v 24.31 -0.5 -1.43
v 24.31 0.5 -1.43
v 24.31 0.5 1.57
v 24.31 -0.5 1.57
v 26.31 -0.5 1.57
v 26.31 0.5 1.57
v 26.31 0.5 -1.43
v 26.31 -0.5 -1.43

vn 0 0 1
vn 0 0 1
vn 0 0 1
vn 0 0 1
vn 0 -1 0
vn 0 -1 0
vn 0 0 -1
vn 0 0 -1
vn 0 -1 0
vn 0 -1 0
vn 0 0 -1
vn 0 0 -1
vn 0 1 0
vn 0 1 0
vn 0 1 0
vn 0 1 0
vn 1 0 0
vn 1 0 0
vn 1 0 0
vn 1 0 0
vn -1 0 0
vn -1 0 0
vn -1 0 0
vn -1 0 0

vt 0 0
vt 1 0
vt 0 1
vt 1 1
vt 0 1
vt 1 1
vt 0 1
vt 1 1
vt 0 0
vt 1 0
vt 0 0
vt 1 0
vt 0 0
vt 0 1
vt 1 1
vt 1 0
vt 0 0
vt 0 1
vt 1 1
vt 1 0
vt 0 0
vt 0 1
vt 1 1
vt 1 0
f 385/385/385 387/387/387 388/388/388
f 385/385/385 388/388/388 386/386/386
f 393/393/393 389/389/389 390/390/390
f 393/393/393 390/390/390 394/394/394
f 395/395/395 391/391/391 392/392/392
f 395/395/395 392/392/392 396/396/396
f 397/397/397 398/398/398 399/399/399
f 397/397/397 399/399/399 400/400/400
f 401/401/401 402/402/402 403/403/403
f 401/401/401 403/403/403 404/404/404
f 405/405/405 406/406/406 407/407/407
f 405/405/405 407/407/407 408/408/408
#Cube (19)
#-------
g Cube (19)
v 18.4 -0.5 -1.43
v 17.4 -0.5 -1.43
v 18.4 0.5 -1.43
v 17.4 0.5 -1.43
v 18.4 0.5 1.57
v 17.4 0.5 1.57
v 18.4 -0.5 1.57
v 17.4 -0.5 1.57
v 18.4 0.5 -1.43
v 17.4 0.5 -1.43
v 18.4 0.5 1.57
v 17.4 0.5 1.57
v 18.4 -0.5 1.57
v 18.4 -0.5 -1.43
v 17.4 -0.5 -1.43
v 17.4 -0.5 1.57
v 17.4 -0.5 -1.43
v 17.4 0.5 -1.43
v 17.4 0.5 1.57
v 17.4 -0.5 1.57
v 18.4 -0.5 1.57
v 18.4 0.5 1.57
v 18.4 0.5 -1.43
v 18.4 -0.5 -1.43

vn 0 0 1
vn 0 0 1
vn 0 0 1
vn 0 0 1
vn 0 -1 0
vn 0 -1 0
vn 0 0 -1
vn 0 0 -1
vn 0 -1 0
vn 0 -1 0
vn 0 0 -1
vn 0 0 -1
vn 0 1 0
vn 0 1 0
vn 0 1 0
vn 0 1 0
vn 1 0 0
vn 1 0 0
vn 1 0 0
vn 1 0 0
vn -1 0 0
vn -1 0 0
vn -1 0 0
vn -1 0 0

vt 0 0
vt 1 0
vt 0 1
vt 1 1
vt 0 1
vt 1 1
vt 0 1
vt 1 1
vt 0 0
vt 1 0
vt 0 0
vt 1 0
vt 0 0
vt 0 1
vt 1 1
vt 1 0
vt 0 0
vt 0 1
vt 1 1
vt 1 0
vt 0 0
vt 0 1
vt 1 1
vt 1 0
f 409/409/409 411/411/411 412/412/412
f 409/409/409 412/412/412 410/410/410
f 417/417/417 413/413/413 414/414/414
f 417/417/417 414/414/414 418/418/418
f 419/419/419 415/415/415 416/416/416
f 419/419/419 416/416/416 420/420/420
f 421/421/421 422/422/422 423/423/423
f 421/421/421 423/423/423 424/424/424
f 425/425/425 426/426/426 427/427/427
f 425/425/425 427/427/427 428/428/428
f 429/429/429 430/430/430 431/431/431
f 429/429/429 431/431/431 432/432/432
